<svg width="28" height="24" viewBox="0 0 28 24" fill="none" xmlns="http://www.w3.org/2000/svg">
<path d="M27.1709 12.7966L17.0459 22.9216C16.8348 23.1327 16.5485 23.2513 16.25 23.2513C15.9515 23.2513 15.6652 23.1327 15.4541 22.9216C15.243 22.7105 15.1244 22.4242 15.1244 22.1256C15.1244 21.8271 15.243 21.5408 15.4541 21.3297L23.6595 13.1256H1.625C1.32663 13.1256 1.04048 13.0071 0.829505 12.7961C0.618527 12.5851 0.5 12.299 0.5 12.0006C0.5 11.7023 0.618527 11.4161 0.829505 11.2051C1.04048 10.9942 1.32663 10.8756 1.625 10.8756H23.6595L15.4541 2.67156C15.243 2.46047 15.1244 2.17416 15.1244 1.87563C15.1244 1.57709 15.243 1.29078 15.4541 1.07969C15.6652 0.868592 15.9515 0.75 16.25 0.75C16.5485 0.75 16.8348 0.868592 17.0459 1.07969L27.1709 11.2047C27.2755 11.3092 27.3585 11.4332 27.4151 11.5698C27.4717 11.7064 27.5009 11.8528 27.5009 12.0006C27.5009 12.1485 27.4717 12.2949 27.4151 12.4314C27.3585 12.568 27.2755 12.6921 27.1709 12.7966Z" fill="black"/>
</svg>
