<svg width="28" height="24" viewBox="0 0 28 24" fill="none" xmlns="http://www.w3.org/2000/svg">
<path d="M27.5009 12.0006C27.5009 12.299 27.3824 12.5851 27.1714 12.7961C26.9604 13.0071 26.6743 13.1256 26.3759 13.1256H4.34135L12.5468 21.3297C12.6513 21.4342 12.7343 21.5583 12.7908 21.6949C12.8474 21.8314 12.8765 21.9778 12.8765 22.1256C12.8765 22.2734 12.8474 22.4198 12.7908 22.5564C12.7343 22.693 12.6513 22.817 12.5468 22.9216C12.4423 23.0261 12.3182 23.109 12.1816 23.1656C12.0451 23.2221 11.8987 23.2513 11.7509 23.2513C11.6031 23.2513 11.4567 23.2221 11.3201 23.1656C11.1836 23.109 11.0595 23.0261 10.9549 22.9216L0.829947 12.7966C0.725349 12.6921 0.64237 12.568 0.585755 12.4314C0.52914 12.2949 0.5 12.1485 0.5 12.0006C0.5 11.8528 0.52914 11.7064 0.585755 11.5698C0.64237 11.4332 0.725349 11.3092 0.829947 11.2047L10.9549 1.07969C11.166 0.868592 11.4524 0.75 11.7509 0.75C12.0494 0.75 12.3357 0.868592 12.5468 1.07969C12.7579 1.29078 12.8765 1.57709 12.8765 1.87563C12.8765 2.17416 12.7579 2.46047 12.5468 2.67156L4.34135 10.8756H26.3759C26.6743 10.8756 26.9604 10.9942 27.1714 11.2051C27.3824 11.4161 27.5009 11.7023 27.5009 12.0006Z" fill="black"/>
</svg>
