<?xml version="1.0" encoding="utf-8"?>
<!-- Generator: Adobe Illustrator 28.2.0, SVG Export Plug-In . SVG Version: 6.00 Build 0)  -->
<svg version="1.1" id="Layer_1" xmlns="http://www.w3.org/2000/svg" xmlns:xlink="http://www.w3.org/1999/xlink" x="0px" y="0px"
	 viewBox="0 0 741.5 439.6" style="enable-background:new 0 0 741.5 439.6;" xml:space="preserve">
<style type="text/css">
	.st0{fill-rule:evenodd;clip-rule:evenodd;fill:#1B3C4C;stroke:#1B3C4C;stroke-width:50;stroke-miterlimit:10;}
	.st1{fill-rule:evenodd;clip-rule:evenodd;fill:#F7F3F4;}
</style>
<g>
	<path class="st0" d="M371.2,49.2c-84.5,0-163.9,18-223.6,50.6c-60.9,33.3-94.5,78-94.5,125.8c0,47.6,33.9,92,95.5,124.9
		c59.9,32,139.7,49.6,224.5,49.6s164.6-17.6,224.5-49.7c61.6-32.9,95.6-77.3,95.6-124.9c0-47.8-33.9-92.5-95.4-125.8
		C537.6,67.2,457.1,49.2,371.2,49.2"/>
	<path class="st1" d="M371.2,59.1c175.5,0,311.9,76.1,311.9,166.4s-137.4,164.6-310,164.6S63.2,315.8,63.2,225.5
		C63.3,135.3,198.7,59.1,371.2,59.1 M371.2,49.2c-84.5,0-163.9,18-223.6,50.6c-60.9,33.3-94.5,78-94.5,125.8
		c0,47.6,33.9,92,95.5,124.9c59.9,32,139.7,49.6,224.5,49.6s164.6-17.6,224.5-49.7c61.6-32.9,95.6-77.3,95.6-124.9
		c0-47.8-33.9-92.5-95.4-125.8C537.6,67.2,457.1,49.2,371.2,49.2 M70.8,224.5C71,136.5,206.4,66,373.1,65.9
		c166.7,0.1,302.2,70.6,302.3,158.6c-0.2,88-135.6,158.5-302.3,158.6C206.4,383.1,71,312.5,70.8,224.5 M160.3,113.6
		c-54.5,28.5-88,67.8-87.9,111c0,43.2,33.5,82.5,87.9,111s129.7,46.2,212.9,46.2s158.5-17.6,212.9-46.2c54.5-28.5,88-67.8,87.9-111
		c0-43.2-33.5-82.5-87.9-111S456.4,67.4,373.2,67.4c-56.1,0-108.6,8-153.6,22C197.9,96.2,178,104.3,160.3,113.6 M370.6,266.3
		l6.8,20.5h22l-17.8,12.7l6.8,20.6l-17.8-12.7l-17.9,12.7l6.9-20.6l-17.9-12.7h22.1L370.6,266.3z M240.1,296.2l3.5-2.3
		c0.9,1.4,2.4,2.9,4.6,2.9c1.8,0,3.1-0.9,3.1-2.3c0-1.2-0.8-1.8-2.7-3l-1-0.7c-2.8-1.8-4.1-3.5-4.1-6.3c0-3.3,2.3-6,6.9-6
		c2.7,0,4.7,1.1,6,2.7l-3.2,2.7c-0.8-1-1.7-1.6-3.1-1.6c-1.6,0-2.3,1-2.3,2c0,1.1,0.6,1.7,2.3,2.8l1.1,0.7c2.9,1.8,4.8,3.4,4.8,6.5
		c0,4.3-3.3,6.4-7.7,6.4C244,300.6,241.2,298.3,240.1,296.2 M261.4,296.4l1.7-9.6h4.3l-1.7,9.6c-0.1,0.6,0.1,0.8,0.6,0.8h1l-0.6,3.1
		h-1.6C262,300.3,260.8,299.6,261.4,296.4 M263.5,281.8c0-1.5,1.2-2.6,2.6-2.6c1.5,0,2.7,1,2.7,2.6s-1.2,2.6-2.7,2.6
		C264.7,284.4,263.5,283.4,263.5,281.8 M274.6,286.8h4.3l-0.5,2.4c1.1-1.8,2.5-2.7,4.5-2.7c3,0,4.8,2.5,4.1,6.3l-0.6,3.6
		c-0.1,0.6,0.1,0.8,0.6,0.8h1l-0.5,3.1h-1.6c-3.1,0-4.3-0.7-3.7-3.9l0.6-3.5c0.3-1.8-0.4-2.7-1.9-2.7c-1.7,0-2.6,0.8-2.9,2.8
		l-1.3,7.3h-4.5L274.6,286.8L274.6,286.8z M292.4,293.7c0-4.3,3.3-7.2,7.6-7.2c2.8,0,4.7,1.1,5.8,2.7l-3.1,2.4
		c-0.6-0.9-1.5-1.5-2.7-1.5c-1.9,0-3.1,1.5-3.1,3.5s0.9,3.3,2.8,3.3c1.3,0,2-0.5,2.6-1l2.5,2.8c-1.1,1.1-2.8,1.9-5.1,1.9
		C295.4,300.6,292.4,297.9,292.4,293.7 M318.1,297.2c1.6,0,2.5-0.6,3.3-1.1l2.6,2.7c-1.5,1.2-3.2,1.9-5.9,1.9c-5,0-7.8-3-7.8-7
		c0-4.3,3.3-7.2,7.4-7.2c4.9,0,7,3.1,7.3,7.6l-10.2,1.1C315.2,296.5,316.3,297.2,318.1,297.2L318.1,297.2z M320.3,292.2
		c-0.1-1.5-1-2.4-2.6-2.4c-1.8,0-3,0.9-3.2,3L320.3,292.2L320.3,292.2z M421.7,288.8h-3.2l0.7-3.4h7.4l-3,16.6h-4.3L421.7,288.8z
		 M438.3,299.5c1-1.1,2.8-2.1,2.8-2.1c-0.7,0.4-1.6,0.6-2.5,0.6c-3.1,0-5.9-2.4-5.9-6c0-4.3,3.4-6.9,7.5-6.9s7.2,2.6,7.2,6.7
		c0,2.6-1.6,5-3.6,7.1l-5.5,6h-5.1L438.3,299.5L438.3,299.5z M442.9,291.7c0-1.7-1.1-2.9-2.9-2.9c-1.9,0-3,1.4-3,3.1
		s1.1,2.9,2.9,2.9C441.8,294.8,442.9,293.4,442.9,291.7z M452.4,293.9c0-5.6,4.7-8.8,9.1-8.8c4.7,0,8.6,3.5,8.6,8.4
		c0,5.6-4.7,8.8-9.1,8.8C456.3,302.2,452.4,298.8,452.4,293.9 M465.6,293.4c0-2.9-1.7-4.7-4.1-4.7c-2.5,0-4.5,1.8-4.5,5.1
		c0,2.9,1.7,4.6,4.1,4.6C463.5,298.5,465.6,296.8,465.6,293.4 M481.5,299.5c1-1.1,2.8-2.1,2.8-2.1c-0.7,0.4-1.6,0.6-2.5,0.6
		c-3.1,0-5.9-2.4-5.9-6c0-4.3,3.4-6.9,7.5-6.9s7.2,2.6,7.2,6.7c0,2.6-1.6,5-3.6,7.1l-5.5,6h-5.1L481.5,299.5L481.5,299.5z
		 M486.2,291.7c0-1.7-1.1-2.9-2.9-2.9c-1.9,0-3,1.4-3,3.1s1.1,2.9,2.8,2.9C485.1,294.8,486.2,293.4,486.2,291.7z M497.7,156.7
		c0-2.8,2.3-5.1,5.2-5.1s5.2,2.3,5.2,5.1s-2.3,5.1-5.2,5.1C500.1,161.8,497.7,159.5,497.7,156.7 M220.1,156.7c0-2.8,2.3-5.1,5.2-5.1
		s5.2,2.3,5.2,5.1s-2.3,5.1-5.2,5.1S220.1,159.5,220.1,156.7 M121.4,248.1h10.2v-52.6h-10.2V217h-20.2v-21.5H91v52.6h10.2v-21.5
		h20.2L121.4,248.1L121.4,248.1z M168.9,248.9c15.3,0,27.4-12,27.4-27c0-14.9-12.2-27-27.4-27s-27.4,12.1-27.4,27
		S153.7,248.9,168.9,248.9z M168.9,239c-9.6,0-17.3-7.7-17.3-17.1s7.6-17.1,17.3-17.1c9.6,0,17.3,7.7,17.3,17.1S178.5,239,168.9,239
		z M225.3,248.9c11.2,0,19.4-6.4,19.4-18.9v-34.4h-10.2v35c0,5-4.1,9-9.3,9c-5.1,0-9-4-9-9v-35H206V230
		C206,242.5,214.2,248.9,225.3,248.9L225.3,248.9z M273.5,248.9c11.8,0,18.6-8.1,18.6-16.4c0-10.1-8.2-13.3-15.5-15.6
		c-5.7-1.9-10.9-3.2-10.9-7.3c0-3.3,2.6-5.8,7.3-5.8c4.2,0,7.3,1.7,9.5,5l8.4-6.3c-4.3-4.4-9.3-7.6-18.1-7.6
		c-10.3,0-17.8,6.7-17.8,15.1c0,10.1,8,12.8,15.2,15c5.7,1.7,11.1,3.1,11.1,7.4c0,3.6-2.8,6.9-8,6.9c-4.8,0-9-2.6-11.6-7.1l-9.3,7.2
		C257.4,244.8,263.8,248.9,273.5,248.9L273.5,248.9z M301.9,248.1h31.8v-9.6h-21.6v-12h21.6v-9.6h-21.6v-11.8h21.6v-9.6h-31.8V248.1
		z M375.1,248.1h11.6L368.4,216l16.9-20.5h-12.4l-17.3,21.2v-21.2h-10.2v52.6h10.2v-18.3l5.6-6.9L375.1,248.1L375.1,248.1z
		 M394.6,248.1h31.8v-9.6h-21.6v-12h21.6v-9.6h-21.6v-11.8h21.6v-9.6h-31.8V248.1z M438,248.1h31.8v-9.6h-21.6v-12h21.6v-9.6h-21.6
		v-11.8h21.6v-9.6H438L438,248.1L438,248.1z M481.4,248.1h10.2v-15h8.1c11.2,0,19.4-8.3,19.4-18.8c0-10.4-8.2-18.8-19.3-18.8h-18.4
		L481.4,248.1L481.4,248.1z M499.1,204.8c5.8,0,9.8,4.3,9.8,9.5c0,5.3-4,9.5-9.8,9.5h-7.5v-19H499.1z M528.4,248.1h10.2v-52.6h-10.2
		V248.1z M550.9,248.1h10.2v-36.5l23.5,36.5h10.9v-52.6h-10.2v35.4l-22.8-35.4h-11.6L550.9,248.1L550.9,248.1z M633.2,248.9
		c15.9,0,26.2-12.2,26.2-26.3v-4h-27.8v9.6h16.8c-1.9,6.7-7.4,11-15.2,11c-10.3,0-17.7-7.6-17.7-17.3c0-9.4,7.6-17.3,17.3-17.3
		c7,0,12,3.1,15.3,9.1l9-5.3c-4.5-7.9-13.2-13.5-24.4-13.5c-15.9,0-27.4,12-27.4,27C605.4,236.4,616.5,248.9,633.2,248.9
		L633.2,248.9z M280.3,185.1c15.9,0,26.2-12.2,26.2-26.3v-4h-27.8v9.6h16.8c-1.9,6.7-7.4,11-15.2,11c-10.3,0-17.7-7.6-17.7-17.3
		c0-9.4,7.6-17.3,17.3-17.3c7,0,12,3.1,15.3,9.1l8.9-5.3c-4.5-7.9-13.2-13.5-24.4-13.5c-15.9,0-27.4,12-27.4,27
		C252.4,172.6,263.5,185.1,280.3,185.1L280.3,185.1z M341.4,185.1c15.3,0,27.5-12,27.5-27c0-14.9-12.2-27-27.5-27
		c-15.2,0-27.4,12.1-27.4,27C314,173.1,326.2,185.1,341.4,185.1z M341.4,175.2c-9.6,0-17.2-7.7-17.2-17.1s7.6-17.1,17.2-17.1
		s17.3,7.7,17.3,17.1C358.8,167.5,351,175.2,341.4,175.2z M403.8,185.1c15.3,0,27.5-12,27.5-27c0-14.9-12.2-27-27.5-27
		c-15.2,0-27.4,12.1-27.4,27C376.4,173.1,388.6,185.1,403.8,185.1z M403.8,175.2c-9.6,0-17.3-7.7-17.3-17.1s7.6-17.1,17.3-17.1
		c9.6,0,17.3,7.7,17.3,17.1S413.4,175.2,403.8,175.2z M441.1,184.4h15.1c16.4,0,27.9-11.3,27.9-26.3c0-14.9-10.2-26.3-28.3-26.3
		h-14.6v52.6L441.1,184.4L441.1,184.4z M454.5,141.1c13.1,0,19.3,7.1,19.3,17c0,9.7-7.3,17-18.9,17h-3.7v-34H454.5L454.5,141.1z
		 M263.5,108.9l4.4-0.9l-3.3-2.7c1-1.9,1.3-4.2,0.8-6.5c-1.2-5.3-6.4-8.6-11.8-7.4c-5.3,1.1-8.7,6.3-7.5,11.6s6.4,8.6,11.7,7.4
		c1.4-0.3,2.7-0.9,3.8-1.7l-2.9-2.4c-0.5,0.3-1.1,0.5-1.7,0.6c-3.4,0.7-6.7-1.4-7.4-4.7c-0.7-3.3,1.3-6.6,4.7-7.3
		c3.4-0.7,6.7,1.4,7.4,4.7c0.3,1.1,0.1,2.3-0.2,3.3l-3-2.5l-4.3,0.9L263.5,108.9L263.5,108.9z M279.6,106.1c4-0.7,6.5-3.4,5.7-7.9
		L283.1,86l-3.6,0.6l2.2,12.4c0.3,1.8-0.9,3.5-2.7,3.8c-1.8,0.3-3.5-0.9-3.8-2.7L273,87.7l-3.6,0.6l2.2,12.2
		C272.3,105,275.6,106.8,279.6,106.1L279.6,106.1z M290.3,104l3.8-0.5l0.7-3.4l7.3-0.9l1.6,3.1l3.8-0.5l-9.3-17.9l-3.7,0.5
		L290.3,104L290.3,104z M297.1,89.2l3.4,6.7l-4.9,0.6L297.1,89.2z M312.6,101.1l10.6-0.9l-0.3-3.4l-7,0.6L314.5,82l-3.7,0.3
		L312.6,101.1L312.6,101.1z M329,99.8l3.7-0.3l-1.4-18.9l-3.7,0.3L329,99.8z M343.4,98.9l3.7-0.2l-0.7-15.5l5.1-0.2l-0.2-3.5
		l-13.9,0.7l0.2,3.5l5.1-0.2L343.4,98.9L343.4,98.9z M363,98.3h3.7l-0.1-8.9l6.1-10.1h-4l-3.9,6.5l-4-6.5h-4l6.2,9.9L363,98.3
		L363,98.3z M392.8,98.7l3.7,0.2l0.7-15.5l5.1,0.2l0.2-3.5l-13.9-0.6l-0.2,3.4l5.1,0.2L392.8,98.7L392.8,98.7z M407.1,99.3l11.4,1
		l0.3-3.4l-7.7-0.7l0.4-4.3l7.7,0.7l0.3-3.4l-7.7-0.7l0.4-4.2l7.7,0.7l0.3-3.4l-11.4-1L407.1,99.3L407.1,99.3z M430.5,101.8
		c4.2,0.5,7-2.1,7.3-5.1c0.4-3.6-2.4-5.1-4.9-6.2c-2-0.9-3.8-1.6-3.6-3c0.1-1.2,1.2-2,2.9-1.8c1.5,0.2,2.5,0.9,3.2,2.2l3.3-1.9
		c-1.4-1.8-3-3.1-6.1-3.5c-3.7-0.4-6.7,1.7-7,4.7c-0.4,3.6,2.3,4.9,4.8,6c2,0.8,3.8,1.6,3.7,3.1c-0.2,1.3-1.3,2.4-3.2,2.1
		c-1.7-0.2-3.1-1.3-3.9-3l-3.6,2.2C424.9,99.7,427.1,101.4,430.5,101.8L430.5,101.8z M446.6,103.5l3.6,0.6l2.5-15.3l5.1,0.8l0.5-3.4
		l-13.8-2.1l-0.5,3.4l5.1,0.8L446.6,103.5L446.6,103.5z M460.6,105.8l11.3,2.1l0.6-3.4l-7.6-1.4l0.8-4.3l7.7,1.4l0.6-3.4l-7.6-1.4
		l0.8-4.2l7.7,1.4l0.6-3.4l-11.3-2.1L460.6,105.8L460.6,105.8z M477.4,108.9l5.3,1.2c5.7,1.3,10.7-1.7,12-7c1.2-5.2-1.4-10-7.7-11.5
		l-5.1-1.2L477.4,108.9L477.4,108.9z M485.7,94.8c4.6,1.1,6.2,4,5.3,7.5c-0.8,3.4-4,5.4-8,4.4l-1.3-0.3l2.8-11.9L485.7,94.8z
		 M101.9,276.3l6.8,8l2.7-2.2l-4.5-5.3l12.1-9.9l-2.4-2.8L101.9,276.3L101.9,276.3z M111.8,287.6l2.6,2.5l13.6-13.4l-2.6-2.5
		L111.8,287.6z M118.3,294.2l2.8,2.3l8.6-10l-0.6,9.5l9.5-2.2l-8.6,10l2.8,2.3l12.4-14.5l-2.6-2.2l-9.8,2.2l0.7-9.7l-2.8-2.3
		L118.3,294.2L118.3,294.2z M137.4,309.4l3,2l10.9-15.6l-3-2L137.4,309.4z M148.4,316.6l3.1,1.9l8.3-13.2l4.3,2.7l1.9-2.9l-11.8-7.2
		l-1.9,2.9l4.4,2.7L148.4,316.6z M159.6,323.3l10.1,5.3l1.7-3l-6.8-3.6l2.1-3.8l6.8,3.6l1.7-3l-6.8-3.6l2.1-3.7l6.9,3.6l1.7-3
		l-10.1-5.3L159.6,323.3z M174.5,331.1l5,2.2c5.4,2.3,10.9,0.3,13.1-4.7c2.2-4.9,0.6-10.1-5.4-12.7l-4.8-2.1L174.5,331.1
		L174.5,331.1z M185.3,318.8c4.3,1.9,5.3,5.1,3.8,8.4c-1.4,3.2-4.9,4.5-8.7,2.9l-1.2-0.5l5.1-11.2L185.3,318.8L185.3,318.8z
		 M201.9,342.6l3.5,1.3l8.3-11.1l-0.9,13.8l3.4,1.2l11.7-16l-3.5-1.3l-7.9,11.1l0.8-13.6l-3.4-1.2l-8.3,11l1.2-13.5l-3.6-1.3
		L201.9,342.6z M223.6,350l3.7,1.1l2.1-2.8l7.1,2l0.2,3.5l3.7,1.1l-1.1-20.1l-3.6-1L223.6,350L223.6,350z M235.9,339.2l0.3,7.5
		l-4.8-1.4L235.9,339.2L235.9,339.2z M244.4,355.8l3.6,0.9l3.8-15.1l1.9,0.5c2.7,0.7,3.5,2,3,3.8c-0.3,1.3-1.7,2.9-4.5,2.2l-1.7-0.4
		l3.3,10.5l4.1,1l-2.6-7.8c2.7-0.3,4.4-2.3,5-4.6c0.9-3.5-1.1-6.8-5.4-7.8l-5.9-1.4L244.4,355.8L244.4,355.8z M262.2,360l3.6,0.7
		l3.1-15.3l1.9,0.4c2.7,0.5,3.5,1.8,3.2,3.7c-0.3,1.3-1.6,3-4.4,2.4l-1.8-0.3l3.8,10.3l4.1,0.8l-2.9-7.7c2.7-0.5,4.3-2.5,4.8-4.8
		c0.7-3.5-1.4-6.7-5.7-7.6l-5.9-1.2L262.2,360L262.2,360z M279.5,363.4l3.8,0.6l1.7-3.1l7.3,1.1l0.6,3.4l3.8,0.6l-3.8-19.8l-3.7-0.6
		L279.5,363.4L279.5,363.4z M290.3,351.1l1.3,7.3l-4.9-0.7L290.3,351.1L290.3,351.1z M300.9,366.6l3.7,0.4l1.5-13.1l6.9,14l3.9,0.4
		l2.2-18.8l-3.7-0.4l-1.5,12.7l-6.7-13.5l-4.1-0.5L300.9,366.6L300.9,366.6z M326.2,369.3l3.7,0.3l1.2-15.5l5.1,0.4l0.3-3.4l-13.9-1
		l-0.3,3.4l5.1,0.4L326.2,369.3z M345.1,370.5l3.7,0.2l0.4-8.9l6.7-9.8l-4-0.2l-4.3,6.3l-3.6-6.7l-4.1-0.2l5.7,10.2L345.1,370.5
		L345.1,370.5z M365.7,364.6c1.6,0,3-1.3,3-2.9s-1.3-2.9-3-3c-1.6,0-3,1.3-3,2.9C362.8,363.3,364.1,364.6,365.7,364.6z M386.2,371.3
		c1.4,0,2.3-0.5,3-1.3c-0.1,0.6-0.1,0.9-0.1,0.9c-0.2,1.8-1.3,3.2-3,3.2c-1.4,0-2.4-0.7-2.8-1.7l-3.7,1.3c1,2.2,3.3,3.7,6.2,3.6
		c4.4-0.1,6.3-2.7,6.9-6.7l1.9-12.8l-3.7,0.1l-0.2,1.6c-0.7-1.1-2.1-1.7-3.9-1.7c-3.7,0.1-6.3,2.8-6.8,6.2
		C379.4,368.1,381.7,371.5,386.2,371.3z M386.6,368c-2.1,0.1-3.4-1.8-3.1-3.7c0.2-1.6,1.6-3.2,3.6-3.3c1.9-0.1,3.4,1.6,3.1,3.6
		C389.9,366.5,388.6,368,386.6,368z M396.7,370.8l3.7-0.2c0,0,0.7-6.1,0.8-7.1c0.2-2.1,1.1-3.2,2.5-3.2c1.3-0.1,2.2,0.7,1.9,2.6
		l-0.5,3.7c-0.4,2.3,0.2,3.7,3.1,3.5l1.6-0.1l0.3-3.1h-0.4c-0.7,0-1-0.1-0.8-0.9l0.5-3.5c0.5-3.7-1.3-5.7-4.5-5.6
		c-1.2,0.1-2.3,0.6-3.1,1.5l0.8-7.1l-3.6,0.2L396.7,370.8L396.7,370.8z M418,369.7c3.2-0.3,5.2-2,5.4-4.3c0.3-2.9-2.2-3.6-4.3-4
		c-1.4-0.3-2.7-0.4-2.6-1.1c0.1-0.6,0.6-1.1,1.6-1.2c1.2-0.1,2.2,0.4,2.8,1.2l2.8-2.1c-1.1-1.3-3.2-2.2-5.7-2
		c-2.9,0.2-4.9,1.9-5.1,4c-0.3,3,2.2,3.7,4.2,4.1c1.4,0.3,2.7,0.4,2.6,1.2c-0.1,0.8-0.7,1.2-1.7,1.3c-1.3,0.1-2.4-0.5-3.1-1.5
		l-2.9,2.3C413.1,368.8,415.1,369.9,418,369.7L418,369.7z M433,368.3c3.1-0.3,4.7-1.7,5.8-3.6l-3-1.5c-0.7,1.1-1.7,1.8-3,2
		c-1.8,0.2-3.1-0.6-3.6-2c1,0.3,2.2,0.4,3.5,0.3c3.3-0.3,5.6-2.1,5.8-4.7c0.2-2.7-2.4-4.4-5.9-4c-3.4,0.4-6.6,3.1-6.8,6.8
		C425.6,365.4,428.3,368.8,433,368.3L433,368.3z M433.1,357.8c1.3-0.1,2,0.3,2,0.9c0,0.8-0.9,1.5-2.9,1.7c-1.1,0.1-2,0.1-2.7-0.1
		C430.1,358.9,431.5,358,433.1,357.8z M448.3,366.4c1.7-0.2,2.9-1,3.7-2.1c0.5,0.7,1.3,1.2,2.5,1l1.7-0.2l0.1-3.1H456
		c-1,0.1-1.2-0.2-1.2-1l0.4-8.9l-3.6,0.5l-0.1,1.6c-0.9-1-2.3-1.5-4.1-1.3c-3.5,0.5-5.9,3.6-6.1,6.9
		C441.3,363.8,443.9,367,448.3,366.4z M448.4,363.1c-2.1,0.3-3.6-1.4-3.5-3.3c0-1.7,1.2-3.4,3.3-3.7c1.9-0.3,3.5,1.3,3.4,3.3
		C451.5,361.1,450.5,362.8,448.4,363.1L448.4,363.1z M462.4,364l1.6-0.3v-3.2l-0.4,0.1c-0.7,0.1-0.9-0.1-0.9-0.8l0.1-15.1l-3.6,0.6
		l-0.1,15C459.1,362.8,459.4,364.5,462.4,364L462.4,364z M467.3,363.2l3.6-0.6V359l-3.6,0.6V363.2z M481,360.9
		c2.9-0.6,4.9-2.6,5.6-5.1l-3.4-0.8c-0.4,1.3-1.3,2.3-2.7,2.6c-2,0.4-3.7-1.1-3.7-3.1c-0.1-1.9,1.4-3.5,2.8-3.8
		c1.5-0.3,2.6,0.3,3.3,1.5l3-1.9c-1.2-2.1-3.8-3.4-6.7-2.7c-3.7,0.8-5.9,3.9-5.9,7.3C473.3,358.7,476.5,361.8,481,360.9L481,360.9z
		 M496.3,357.4c3.8-0.9,5.8-4.1,5.7-7.5c-0.2-3.9-3.5-6.9-7.9-5.9c-3.7,0.9-5.8,4.1-5.7,7.5C488.6,355.5,491.8,358.5,496.3,357.4z
		 M495.6,354.2c-2,0.5-3.7-1-3.8-3c-0.1-1.9,1.2-3.5,2.8-3.9c2.1-0.5,3.7,1.1,3.8,3.1C498.6,352.3,497.3,353.8,495.6,354.2z
		 M505.8,354.9l3.5-1l-0.6-7c-0.3-2.2,0.3-3.4,1.7-3.8c1.2-0.4,2.1,0.3,2.3,2.1l0.7,7.6l3.5-1l-0.6-6.8c-0.2-2.4,0.4-3.7,1.7-4.1
		c1.4-0.4,2.1,0.6,2.3,2.2l0.3,3.7c0.2,2.3,1.5,3.4,3.4,2.9l2-0.6l-0.4-3.1l-0.5,0.1c-0.7,0.2-1,0.1-1-0.7l-0.3-3.5
		c-0.3-3.8-2.8-5.3-6-4.3c-1.3,0.4-2.5,1.3-3.3,2.9c-1-1-2.4-1.3-4.2-0.7c-1.3,0.4-2.3,1.2-2.8,2.4c-0.6-0.7-1.6-0.8-2.9-0.5
		l-1.5,0.4l0.3,3.2l0.4-0.1c0.8-0.2,1.1,0,1.2,1L505.8,354.9L505.8,354.9z M532.7,336.3l1.9-0.7l1.8,9.8c0.4,2.1,0.1,2.4-1.2,2.9
		l-0.7,0.3l0.6,3.3l1.7-0.6c3.7-1.3,3.9-2.7,3.1-7.1c0,0-1.1-5.9-1.8-9.8l2.3-0.8l-0.6-3.2l-2.3,0.8v-0.3c-0.4-2.1-0.3-2.4,1.2-2.9
		l0.7-0.3l-0.6-3.3l-1,0.4c-3.9,1.4-4.7,2.5-3.7,7.3v0.3l-1.8,0.7L532.7,336.3L532.7,336.3z M551.1,340.2c3.7-1.4,5.2-4.9,4.5-8.2
		c-0.8-3.9-4.4-6.4-8.7-4.7c-3.5,1.4-5.2,4.9-4.5,8.2C543.2,339.4,546.9,341.9,551.1,340.2z M550.1,337.1c-1.9,0.7-3.8-0.5-4.2-2.5
		c-0.4-1.9,0.7-3.6,2.2-4.2c2-0.7,3.8,0.5,4.2,2.5C552.7,334.8,551.7,336.5,550.1,337.1z M559.7,336.5l3.4-1.5l-1.5-6.1
		c-0.6-2.4,0.2-3.6,1.8-4.4l1.3-0.6l-0.9-3.5l-1.5,0.7c-1.5,0.7-2.5,1.8-2.7,3.5c-0.6-1.1-1.6-1.6-3.1-0.8l-1.4,0.6l0.8,3l0.4-0.2
		c0.8-0.4,1.1-0.1,1.3,0.8L559.7,336.5L559.7,336.5z M581.7,326.2c1.6-0.8,2.3-2.1,2.6-3.3c0.7,0.6,1.7,0.8,2.8,0.2l1.5-0.8l-1-2.9
		l-0.3,0.1c-0.9,0.5-1.2,0.2-1.5-0.6l-4.7-14.3l-3.2,1.7l2.4,7.3c-1.1-0.6-2.6-0.7-4.3,0.2c-3.1,1.7-4.3,5.3-3.3,8.5
		C574.2,326.2,577.8,328.3,581.7,326.2L581.7,326.2z M580.6,323c-1.9,1-3.8-0.1-4.5-1.9c-0.6-1.6,0-3.6,1.8-4.5
		c1.7-0.9,3.7,0,4.3,1.9C582.8,320.2,582.4,322.1,580.6,323z M597.3,317.3c2.6-1.6,3.5-3.5,3.7-5.7l-3.3-0.1c-0.1,1.3-0.7,2.4-1.8,3
		c-1.6,0.9-3.1,0.8-4.1-0.3c1-0.2,2.2-0.5,3.3-1.3c2.8-1.7,4.2-4.3,3.2-6.7c-1-2.5-4.1-3-7.1-1.1c-2.9,1.8-4.6,5.6-3.2,9
		C589.3,317.8,593.2,319.8,597.3,317.3L597.3,317.3z M592.8,307.8c1.1-0.7,1.9-0.6,2.2,0c0.3,0.7-0.2,1.7-1.9,2.7
		c-0.9,0.6-1.8,0.9-2.5,1.1C590.5,310.1,591.4,308.6,592.8,307.8L592.8,307.8z M599,304.3l1.8-1.3l1.9,3.8c1.9,3.9,3.6,4.4,7.1,1.9
		l0.4-0.3l-1.5-3c-1.9,1.3-2.2,1.2-3.1-0.7c-0.1-0.1-0.9-1.8-1.9-3.8l2-1.4l-1.4-2.9l-2,1.4c-1.2-2.4-2.2-4.6-2.2-4.6l-2.1,3.9
		l1.3,2.8l-1.8,1.3L599,304.3L599,304.3z M618.7,302.4c1.3-1.1,1.9-2.4,2-3.7c0.8,0.4,1.7,0.3,2.6-0.5l1.3-1.1l-1.6-2.7l-0.2,0.2
		c-0.8,0.7-1.2,0.5-1.6-0.3l-4.5-7.7l-2.8,2.3l0.8,1.4c-1.3-0.4-2.8-0.1-4.2,1.1c-2.7,2.3-3.1,6.1-1.4,9
		C611.3,303.8,615.2,305.2,618.7,302.4L618.7,302.4z M616.9,299.5c-1.6,1.4-3.8,0.7-4.8-1c-0.9-1.4-0.8-3.5,0.8-4.8
		c1.4-1.2,3.6-0.7,4.7,1C618.5,296.2,618.5,298.2,616.9,299.5z M629,293.1l1.3-1.3l-1.9-2.6l-0.3,0.3c-0.5,0.5-0.8,0.5-1.2-0.1
		l-5.3-7.4l-2.6,2.5l5.5,7.7C626.1,294.1,627.3,294.7,629,293.1z M618.4,283.3l2.6-2.5l-2.1-3l-2.6,2.5L618.4,283.3z M634.8,287.3
		l1.1-1.2l-1.9-2.6l-0.3,0.3c-0.5,0.5-0.8,0.5-1.2-0.1l-9.2-12.1l-2.5,2.6l9.2,12.1C631.4,288.2,632.7,289.4,634.8,287.3
		L634.8,287.3z M641.7,279.9c2.1-2.5,2.2-5,0.6-6.8c-1.9-2.2-4.2-1-5.9,0.1c-1.2,0.8-2.2,1.6-2.7,1c-0.4-0.5-0.4-1.2,0.3-1.9
		c0.8-0.9,1.8-1.2,2.9-1.1l0.4-3.4c-1.7-0.2-3.8,0.7-5.4,2.6c-1.8,2.1-2.1,4.7-0.7,6.4c2,2.3,4.2,1.1,5.9-0.1c1.2-0.8,2.2-1.6,2.7-1
		s0.4,1.4-0.2,2.1c-0.8,1-2,1.3-3.3,1.1l-0.4,3.6C637.6,282.8,639.8,282.2,641.7,279.9L641.7,279.9z"/>
</g>
</svg>
