<svg xmlns="http://www.w3.org/2000/svg" width="787" height="744"><title>Good Housekeeping institute logo</title><desc>Good Housekeeping institute logo</desc><g fill="none" fill-rule="evenodd"><path fill="#000" d="M0 0v733l395-80.001L787 733V0z"/><g fill="#FFF"><path d="M394 184.8c175.5 0 311.9 76.1 311.9 166.4 0 90.3-137.4 164.6-310 164.6S86 441.5 86 351.2c.1-90.2 135.5-166.4 308-166.4m0-9.9c-84.5 0-163.9 18-223.6 50.6-60.9 33.3-94.5 78-94.5 125.8 0 47.6 33.9 92 95.5 124.9 59.9 32 139.7 49.6 224.5 49.6 84.8 0 164.6-17.6 224.5-49.7C682 443.2 716 398.8 716 351.2c0-47.8-33.9-92.5-95.4-125.8-60.2-32.5-140.7-50.5-226.6-50.5"/><path d="M93.6 350.2c.2-88 135.6-158.5 302.3-158.6 166.7.1 302.2 70.6 302.3 158.6-.2 88-135.6 158.5-302.3 158.6-166.7 0-302.1-70.6-302.3-158.6m89.5-110.9c-54.5 28.5-88 67.8-87.9 111 0 43.2 33.5 82.5 87.9 111 54.4 28.5 129.7 46.2 212.9 46.2 83.2 0 158.5-17.6 212.9-46.2 54.5-28.5 88-67.8 87.9-111 0-43.2-33.5-82.5-87.9-111-54.4-28.5-129.7-46.2-212.9-46.2-56.1 0-108.6 8-153.6 22-21.7 6.8-41.6 14.9-59.3 24.2"/><path d="m393.4 392 6.8 20.5h22l-17.8 12.7 6.8 20.6-17.8-12.7-17.9 12.7 6.9-20.6-17.9-12.7h22.1zm-130.5 29.9 3.5-2.3c.9 1.4 2.4 2.9 4.6 2.9 1.8 0 3.1-.9 3.1-2.3 0-1.2-.8-1.8-2.7-3l-1-.7c-2.8-1.8-4.1-3.5-4.1-6.3 0-3.3 2.3-6 6.9-6 2.7 0 4.7 1.1 6 2.7l-3.2 2.7c-.8-1-1.7-1.6-3.1-1.6-1.6 0-2.3 1-2.3 2 0 1.1.6 1.7 2.3 2.8l1.1.7c2.9 1.8 4.8 3.4 4.8 6.5 0 4.3-3.3 6.4-7.7 6.4-4.3-.1-7.1-2.4-8.2-4.5m21.3.2 1.7-9.6h4.3l-1.7 9.6c-.1.6.1.8.6.8h1l-.6 3.1h-1.6c-3.1 0-4.3-.7-3.7-3.9m2.1-14.6c0-1.5 1.2-2.6 2.6-2.6 1.5 0 2.7 1 2.7 2.6s-1.2 2.6-2.7 2.6c-1.4 0-2.6-1-2.6-2.6m11.1 5h4.3l-.5 2.4c1.1-1.8 2.5-2.7 4.5-2.7 3 0 4.8 2.5 4.1 6.3l-.6 3.6c-.1.6.1.8.6.8h1l-.5 3.1h-1.6c-3.1 0-4.3-.7-3.7-3.9l.6-3.5c.3-1.8-.4-2.7-1.9-2.7-1.7 0-2.6.8-2.9 2.8l-1.3 7.3H295l2.4-13.5zm17.8 6.9c0-4.3 3.3-7.2 7.6-7.2 2.8 0 4.7 1.1 5.8 2.7l-3.1 2.4c-.6-.9-1.5-1.5-2.7-1.5-1.9 0-3.1 1.5-3.1 3.5s.9 3.3 2.8 3.3c1.3 0 2-.5 2.6-1l2.5 2.8c-1.1 1.1-2.8 1.9-5.1 1.9-4.3 0-7.3-2.7-7.3-6.9m25.7 3.5c1.6 0 2.5-.6 3.3-1.1l2.6 2.7c-1.5 1.2-3.2 1.9-5.9 1.9-5 0-7.8-3-7.8-7 0-4.3 3.3-7.2 7.4-7.2 4.9 0 7 3.1 7.3 7.6l-10.2 1.1c.4 1.3 1.5 2 3.3 2zm2.2-5c-.1-1.5-1-2.4-2.6-2.4-1.8 0-3 .9-3.2 3l5.8-.6zm101.4-3.4h-3.2l.7-3.4h7.4l-3 16.6h-4.3zm16.6 10.7c1-1.1 2.8-2.1 2.8-2.1-.7.4-1.6.6-2.5.6-3.1 0-5.9-2.4-5.9-6 0-4.3 3.4-6.9 7.5-6.9s7.2 2.6 7.2 6.7c0 2.6-1.6 5-3.6 7.1l-5.5 6H456l5.1-5.4zm4.6-7.8c0-1.7-1.1-2.9-2.9-2.9-1.9 0-3 1.4-3 3.1 0 1.7 1.1 2.9 2.9 2.9 1.9 0 3-1.4 3-3.1zm9.5 2.2c0-5.6 4.7-8.8 9.1-8.8 4.7 0 8.6 3.5 8.6 8.4 0 5.6-4.7 8.8-9.1 8.8-4.7-.1-8.6-3.5-8.6-8.4m13.2-.5c0-2.9-1.7-4.7-4.1-4.7-2.5 0-4.5 1.8-4.5 5.1 0 2.9 1.7 4.6 4.1 4.6 2.4.1 4.5-1.6 4.5-5m15.9 6.1c1-1.1 2.8-2.1 2.8-2.1-.7.4-1.6.6-2.5.6-3.1 0-5.9-2.4-5.9-6 0-4.3 3.4-6.9 7.5-6.9s7.2 2.6 7.2 6.7c0 2.6-1.6 5-3.6 7.1l-5.5 6h-5.1l5.1-5.4zm4.7-7.8c0-1.7-1.1-2.9-2.9-2.9-1.9 0-3 1.4-3 3.1 0 1.7 1.1 2.9 2.8 2.9 2 0 3.1-1.4 3.1-3.1zm11.5-135c0-2.8 2.3-5.1 5.2-5.1 2.9 0 5.2 2.3 5.2 5.1s-2.3 5.1-5.2 5.1c-2.8 0-5.2-2.3-5.2-5.1m-277.6 0c0-2.8 2.3-5.1 5.2-5.1 2.9 0 5.2 2.3 5.2 5.1s-2.3 5.1-5.2 5.1c-2.9 0-5.2-2.3-5.2-5.1m-98.7 91.4h10.2v-52.6h-10.2v21.5H124v-21.5h-10.2v52.6H124v-21.5h20.2v21.5zm47.5.8c15.3 0 27.4-12 27.4-27 0-14.9-12.2-27-27.4-27s-27.4 12.1-27.4 27 12.2 27 27.4 27zm0-9.9c-9.6 0-17.3-7.7-17.3-17.1 0-9.4 7.6-17.1 17.3-17.1 9.6 0 17.3 7.7 17.3 17.1 0 9.4-7.7 17.1-17.3 17.1zm56.4 9.9c11.2 0 19.4-6.4 19.4-18.9v-34.4h-10.2v35c0 5-4.1 9-9.3 9-5.1 0-9-4-9-9v-35h-10.2v34.4c0 12.5 8.2 18.9 19.3 18.9zm48.2 0c11.8 0 18.6-8.1 18.6-16.4 0-10.1-8.2-13.3-15.5-15.6-5.7-1.9-10.9-3.2-10.9-7.3 0-3.3 2.6-5.8 7.3-5.8 4.2 0 7.3 1.7 9.5 5l8.4-6.3c-4.3-4.4-9.3-7.6-18.1-7.6-10.3 0-17.8 6.7-17.8 15.1 0 10.1 8 12.8 15.2 15 5.7 1.7 11.1 3.1 11.1 7.4 0 3.6-2.8 6.9-8 6.9-4.8 0-9-2.6-11.6-7.1l-9.3 7.2c5 5.4 11.4 9.5 21.1 9.5zm28.4-.8h31.8v-9.6h-21.6v-12h21.6v-9.6h-21.6v-11.8h21.6v-9.6h-31.8v52.6zm73.2 0h11.6l-18.3-32.1 16.9-20.5h-12.4l-17.3 21.2v-21.2h-10.2v52.6h10.2v-18.3l5.6-6.9 13.9 25.2zm19.5 0h31.8v-9.6h-21.6v-12h21.6v-9.6h-21.6v-11.8h21.6v-9.6h-31.8v52.6zm43.4 0h31.8v-9.6H471v-12h21.6v-9.6H471v-11.8h21.6v-9.6h-31.8v52.6zm43.4 0h10.2v-15h8.1c11.2 0 19.4-8.3 19.4-18.8 0-10.4-8.2-18.8-19.3-18.8h-18.4v52.6zm17.7-43.3c5.8 0 9.8 4.3 9.8 9.5 0 5.3-4 9.5-9.8 9.5h-7.5v-19h7.5zm29.3 43.3h10.2v-52.6h-10.2v52.6zm22.5 0h10.2v-36.5l23.5 36.5h10.9v-52.6h-10.2v35.4l-22.8-35.4h-11.6v52.6zm82.3.8c15.9 0 26.2-12.2 26.2-26.3v-4h-27.8v9.6h16.8c-1.9 6.7-7.4 11-15.2 11-10.3 0-17.7-7.6-17.7-17.3 0-9.4 7.6-17.3 17.3-17.3 7 0 12 3.1 15.3 9.1l9-5.3c-4.5-7.9-13.2-13.5-24.4-13.5-15.9 0-27.4 12-27.4 27 .1 14.5 11.2 27 27.9 27zm-352.9-63.8c15.9 0 26.2-12.2 26.2-26.3v-4h-27.8v9.6h16.8c-1.9 6.7-7.4 11-15.2 11-10.3 0-17.7-7.6-17.7-17.3 0-9.4 7.6-17.3 17.3-17.3 7 0 12 3.1 15.3 9.1l8.9-5.3c-4.5-7.9-13.2-13.5-24.4-13.5-15.9 0-27.4 12-27.4 27 .1 14.5 11.2 27 28 27zm61.1 0c15.3 0 27.5-12 27.5-27 0-14.9-12.2-27-27.5-27-15.2 0-27.4 12.1-27.4 27 0 15 12.2 27 27.4 27zm0-9.9c-9.6 0-17.2-7.7-17.2-17.1 0-9.4 7.6-17.1 17.2-17.1s17.3 7.7 17.3 17.1c.1 9.4-7.7 17.1-17.3 17.1zm62.4 9.9c15.3 0 27.5-12 27.5-27 0-14.9-12.2-27-27.5-27-15.2 0-27.4 12.1-27.4 27 0 15 12.2 27 27.4 27zm0-9.9c-9.6 0-17.3-7.7-17.3-17.1 0-9.4 7.6-17.1 17.3-17.1 9.6 0 17.3 7.7 17.3 17.1 0 9.4-7.7 17.1-17.3 17.1zm37.3 9.2H479c16.4 0 27.9-11.3 27.9-26.3 0-14.9-10.2-26.3-28.3-26.3H464v52.6h-.1zm13.4-43.3c13.1 0 19.3 7.1 19.3 17 0 9.7-7.3 17-18.9 17H474v-34h3.3zm-191-32.2 4.4-.9-3.3-2.7c1-1.9 1.3-4.2.8-6.5-1.2-5.3-6.4-8.6-11.8-7.4-5.3 1.1-8.7 6.3-7.5 11.6 1.2 5.3 6.4 8.6 11.7 7.4 1.4-.3 2.7-.9 3.8-1.7l-2.9-2.4c-.5.3-1.1.5-1.7.6-3.4.7-6.7-1.4-7.4-4.7-.7-3.3 1.3-6.6 4.7-7.3 3.4-.7 6.7 1.4 7.4 4.7.3 1.1.1 2.3-.2 3.3l-3-2.5-4.3.9 9.3 7.6zm16.1-2.8c4-.7 6.5-3.4 5.7-7.9l-2.2-12.2-3.6.6 2.2 12.4c.3 1.8-.9 3.5-2.7 3.8-1.8.3-3.5-.9-3.8-2.7l-2.2-12.4-3.6.6 2.2 12.2c.7 4.5 4 6.3 8 5.6zm10.7-2.1 3.8-.5.7-3.4 7.3-.9 1.6 3.1 3.8-.5-9.3-17.9-3.7.5-4.2 19.6zm6.8-14.8 3.4 6.7-4.9.6 1.5-7.3zm15.5 11.9 10.6-.9-.3-3.4-7 .6-1.4-15.4-3.7.3 1.8 18.8zm16.4-1.3 3.7-.3-1.4-18.9-3.7.3 1.4 18.9zm14.4-.9 3.7-.2-.7-15.5 5.1-.2-.2-3.5-13.9.7.2 3.5 5.1-.2.7 15.4zm19.6-.6h3.7l-.1-8.9 6.1-10.1h-4l-3.9 6.5-4-6.5h-4l6.2 9.9v9.1zm29.8.4 3.7.2.7-15.5 5.1.2.2-3.5-13.9-.6-.2 3.4 5.1.2-.7 15.6zm14.3.6 11.4 1 .3-3.4-7.7-.7.4-4.3 7.7.7.3-3.4-7.7-.7.4-4.2 7.7.7.3-3.4-11.4-1-1.7 18.7zm23.4 2.5c4.2.5 7-2.1 7.3-5.1.4-3.6-2.4-5.1-4.9-6.2-2-.9-3.8-1.6-3.6-3 .1-1.2 1.2-2 2.9-1.8 1.5.2 2.5.9 3.2 2.2l3.3-1.9c-1.4-1.8-3-3.1-6.1-3.5-3.7-.4-6.7 1.7-7 4.7-.4 3.6 2.3 4.9 4.8 6 2 .8 3.8 1.6 3.7 3.1-.2 1.3-1.3 2.4-3.2 2.1-1.7-.2-3.1-1.3-3.9-3l-3.6 2.2c1.5 2.1 3.7 3.8 7.1 4.2zm16.1 1.7 3.6.6 2.5-15.3 5.1.8.5-3.4-13.8-2.1-.5 3.4 5.1.8-2.5 15.2zm14 2.3 11.3 2.1.6-3.4-7.6-1.4.8-4.3 7.7 1.4.6-3.4-7.6-1.4.8-4.2 7.7 1.4.6-3.4-11.3-2.1-3.6 18.7zm16.8 3.1 5.3 1.2c5.7 1.3 10.7-1.7 12-7 1.2-5.2-1.4-10-7.7-11.5l-5.1-1.2-4.5 18.5zm8.3-14.1c4.6 1.1 6.2 4 5.3 7.5-.8 3.4-4 5.4-8 4.4l-1.3-.3 2.8-11.9 1.2.3zM124.7 402l6.8 8 2.7-2.2-4.5-5.3 12.1-9.9-2.4-2.8-14.7 12.2zm9.9 11.3 2.6 2.5 13.6-13.4-2.6-2.5-13.6 13.4zm6.5 6.6 2.8 2.3 8.6-10-.6 9.5 9.5-2.2-8.6 10 2.8 2.3 12.4-14.5-2.6-2.2-9.8 2.2.7-9.7-2.8-2.3-12.4 14.6zm19.1 15.2 3 2 10.9-15.6-3-2-10.9 15.6zm11 7.2 3.1 1.9 8.3-13.2 4.3 2.7 1.9-2.9-11.8-7.2-1.9 2.9 4.4 2.7-8.3 13.1zm11.2 6.7 10.1 5.3 1.7-3-6.8-3.6 2.1-3.8 6.8 3.6 1.7-3-6.8-3.6 2.1-3.7 6.9 3.6 1.7-3-10.1-5.3-9.4 16.5zm14.9 7.8 5 2.2c5.4 2.3 10.9.3 13.1-4.7 2.2-4.9.6-10.1-5.4-12.7l-4.8-2.1-7.9 17.3zm10.8-12.3c4.3 1.9 5.3 5.1 3.8 8.4-1.4 3.2-4.9 4.5-8.7 2.9l-1.2-.5 5.1-11.2 1 .4zm16.6 23.8 3.5 1.3 8.3-11.1-.9 13.8 3.4 1.2 11.7-16-3.5-1.3-7.9 11.1.8-13.6-3.4-1.2-8.3 11 1.2-13.5-3.6-1.3-1.3 19.6zm21.7 7.4 3.7 1.1 2.1-2.8 7.1 2 .2 3.5 3.7 1.1-1.1-20.1-3.6-1-12.1 16.2zm12.3-10.8.3 7.5-4.8-1.4 4.5-6.1zm8.5 16.6 3.6.9 3.8-15.1 1.9.5c2.7.7 3.5 2 3 3.8-.3 1.3-1.7 2.9-4.5 2.2l-1.7-.4 3.3 10.5 4.1 1-2.6-7.8c2.7-.3 4.4-2.3 5-4.6.9-3.5-1.1-6.8-5.4-7.8l-5.9-1.4-4.6 18.2zm17.8 4.2 3.6.7 3.1-15.3 1.9.4c2.7.5 3.5 1.8 3.2 3.7-.3 1.3-1.6 3-4.4 2.4l-1.8-.3 3.8 10.3 4.1.8-2.9-7.7c2.7-.5 4.3-2.5 4.8-4.8.7-3.5-1.4-6.7-5.7-7.6l-5.9-1.2-3.8 18.6zm17.3 3.4 3.8.6 1.7-3.1 7.3 1.1.6 3.4 3.8.6-3.8-19.8-3.7-.6-9.7 17.8zm10.8-12.3 1.3 7.3-4.9-.7 3.6-6.6zm10.6 15.5 3.7.4 1.5-13.1 6.9 14 3.9.4 2.2-18.8-3.7-.4-1.5 12.7L330 474l-4.1-.5-2.2 18.8zM349 495l3.7.3 1.2-15.5 5.1.4.3-3.4-13.9-1-.3 3.4 5.1.4L349 495zm18.9 1.2 3.7.2.4-8.9 6.7-9.8-4-.2-4.3 6.3-3.6-6.7-4.1-.2 5.7 10.2-.5 9.1zm20.6-5.9c1.6 0 3-1.3 3-2.9 0-1.6-1.3-2.9-3-3-1.6 0-3 1.3-3 2.9.1 1.7 1.4 3 3 3zM409 497c1.4 0 2.3-.5 3-1.3-.1.6-.1.9-.1.9-.2 1.8-1.3 3.2-3 3.2-1.4 0-2.4-.7-2.8-1.7l-3.7 1.3c1 2.2 3.3 3.7 6.2 3.6 4.4-.1 6.3-2.7 6.9-6.7l1.9-12.8-3.7.1-.2 1.6c-.7-1.1-2.1-1.7-3.9-1.7-3.7.1-6.3 2.8-6.8 6.2-.6 4.1 1.7 7.5 6.2 7.3zm.4-3.3c-2.1.1-3.4-1.8-3.1-3.7.2-1.6 1.6-3.2 3.6-3.3 1.9-.1 3.4 1.6 3.1 3.6-.3 1.9-1.6 3.4-3.6 3.4zm10.1 2.8 3.7-.2s.7-6.1.8-7.1c.2-2.1 1.1-3.2 2.5-3.2 1.3-.1 2.2.7 1.9 2.6l-.5 3.7c-.4 2.3.2 3.7 3.1 3.5l1.6-.1.3-3.1h-.4c-.7 0-1-.1-.8-.9l.5-3.5c.5-3.7-1.3-5.7-4.5-5.6-1.2.1-2.3.6-3.1 1.5l.8-7.1-3.6.2-2.3 19.3zm21.3-1.1c3.2-.3 5.2-2 5.4-4.3.3-2.9-2.2-3.6-4.3-4-1.4-.3-2.7-.4-2.6-1.1.1-.6.6-1.1 1.6-1.2 1.2-.1 2.2.4 2.8 1.2l2.8-2.1c-1.1-1.3-3.2-2.2-5.7-2-2.9.2-4.9 1.9-5.1 4-.3 3 2.2 3.7 4.2 4.1 1.4.3 2.7.4 2.6 1.2-.1.8-.7 1.2-1.7 1.3-1.3.1-2.4-.5-3.1-1.5l-2.9 2.3c1.1 1.2 3.1 2.3 6 2.1zm15-1.4c3.1-.3 4.7-1.7 5.8-3.6l-3-1.5c-.7 1.1-1.7 1.8-3 2-1.8.2-3.1-.6-3.6-2 1 .3 2.2.4 3.5.3 3.3-.3 5.6-2.1 5.8-4.7.2-2.7-2.4-4.4-5.9-4-3.4.4-6.6 3.1-6.8 6.8-.2 3.8 2.5 7.2 7.2 6.7zm.1-10.5c1.3-.1 2 .3 2 .9 0 .8-.9 1.5-2.9 1.7-1.1.1-2 .1-2.7-.1.6-1.4 2-2.3 3.6-2.5zm15.2 8.6c1.7-.2 2.9-1 3.7-2.1.5.7 1.3 1.2 2.5 1l1.7-.2.1-3.1h-.3c-1 .1-1.2-.2-1.2-1l.4-8.9-3.6.5-.1 1.6c-.9-1-2.3-1.5-4.1-1.3-3.5.5-5.9 3.6-6.1 6.9 0 4 2.6 7.2 7 6.6zm.1-3.3c-2.1.3-3.6-1.4-3.5-3.3 0-1.7 1.2-3.4 3.3-3.7 1.9-.3 3.5 1.3 3.4 3.3-.1 1.7-1.1 3.4-3.2 3.7zm14 .9 1.6-.3v-3.2l-.4.1c-.7.1-.9-.1-.9-.8l.1-15.1-3.6.6-.1 15c0 2.5.3 4.2 3.3 3.7zm4.9-.8 3.6-.6v-3.6l-3.6.6v3.6zm13.7-2.3c2.9-.6 4.9-2.6 5.6-5.1l-3.4-.8c-.4 1.3-1.3 2.3-2.7 2.6-2 .4-3.7-1.1-3.7-3.1-.1-1.9 1.4-3.5 2.8-3.8 1.5-.3 2.6.3 3.3 1.5l3-1.9c-1.2-2.1-3.8-3.4-6.7-2.7-3.7.8-5.9 3.9-5.9 7.3 0 3.8 3.2 6.9 7.7 6zm15.3-3.5c3.8-.9 5.8-4.1 5.7-7.5-.2-3.9-3.5-6.9-7.9-5.9-3.7.9-5.8 4.1-5.7 7.5.2 4 3.4 7 7.9 5.9zm-.7-3.2c-2 .5-3.7-1-3.8-3-.1-1.9 1.2-3.5 2.8-3.9 2.1-.5 3.7 1.1 3.8 3.1.2 1.9-1.1 3.4-2.8 3.8zm10.2.7 3.5-1-.6-7c-.3-2.2.3-3.4 1.7-3.8 1.2-.4 2.1.3 2.3 2.1l.7 7.6 3.5-1-.6-6.8c-.2-2.4.4-3.7 1.7-4.1 1.4-.4 2.1.6 2.3 2.2l.3 3.7c.2 2.3 1.5 3.4 3.4 2.9l2-.6-.4-3.1-.5.1c-.7.2-1 .1-1-.7l-.3-3.5c-.3-3.8-2.8-5.3-6-4.3-1.3.4-2.5 1.3-3.3 2.9-1-1-2.4-1.3-4.2-.7-1.3.4-2.3 1.2-2.8 2.4-.6-.7-1.6-.8-2.9-.5l-1.5.4.3 3.2.4-.1c.8-.2 1.1 0 1.2 1l.8 8.7zm26.9-18.6 1.9-.7 1.8 9.8c.4 2.1.1 2.4-1.2 2.9l-.7.3.6 3.3 1.7-.6c3.7-1.3 3.9-2.7 3.1-7.1 0 0-1.1-5.9-1.8-9.8l2.3-.8-.6-3.2-2.3.8v-.3c-.4-2.1-.3-2.4 1.2-2.9l.7-.3-.6-3.3-1 .4c-3.9 1.4-4.7 2.5-3.7 7.3v.3l-1.8.7.4 3.2zm18.4 3.9c3.7-1.4 5.2-4.9 4.5-8.2-.8-3.9-4.4-6.4-8.7-4.7-3.5 1.4-5.2 4.9-4.5 8.2.8 3.9 4.5 6.4 8.7 4.7zm-1-3.1c-1.9.7-3.8-.5-4.2-2.5-.4-1.9.7-3.6 2.2-4.2 2-.7 3.8.5 4.2 2.5.4 1.9-.6 3.6-2.2 4.2zm9.6-.6 3.4-1.5-1.5-6.1c-.6-2.4.2-3.6 1.8-4.4l1.3-.6-.9-3.5-1.5.7c-1.5.7-2.5 1.8-2.7 3.5-.6-1.1-1.6-1.6-3.1-.8l-1.4.6.8 3 .4-.2c.8-.4 1.1-.1 1.3.8l2.1 8.5zm22-10.3c1.6-.8 2.3-2.1 2.6-3.3.7.6 1.7.8 2.8.2l1.5-.8-1-2.9-.3.1c-.9.5-1.2.2-1.5-.6l-4.7-14.3-3.2 1.7 2.4 7.3c-1.1-.6-2.6-.7-4.3.2-3.1 1.7-4.3 5.3-3.3 8.5 1.5 3.9 5.1 6 9 3.9zm-1.1-3.2c-1.9 1-3.8-.1-4.5-1.9-.6-1.6 0-3.6 1.8-4.5 1.7-.9 3.7 0 4.3 1.9.6 1.7.2 3.6-1.6 4.5zm16.7-5.7c2.6-1.6 3.5-3.5 3.7-5.7l-3.3-.1c-.1 1.3-.7 2.4-1.8 3-1.6.9-3.1.8-4.1-.3 1-.2 2.2-.5 3.3-1.3 2.8-1.7 4.2-4.3 3.2-6.7-1-2.5-4.1-3-7.1-1.1-2.9 1.8-4.6 5.6-3.2 9 1.3 3.7 5.2 5.7 9.3 3.2zm-4.5-9.5c1.1-.7 1.9-.6 2.2 0 .3.7-.2 1.7-1.9 2.7-.9.6-1.8.9-2.5 1.1-.1-1.5.8-3 2.2-3.8zm6.2-3.5 1.8-1.3 1.9 3.8c1.9 3.9 3.6 4.4 7.1 1.9l.4-.3-1.5-3c-1.9 1.3-2.2 1.2-3.1-.7-.1-.1-.9-1.8-1.9-3.8l2-1.4-1.4-2.9-2 1.4c-1.2-2.4-2.2-4.6-2.2-4.6l-2.1 3.9 1.3 2.8-1.8 1.3 1.5 2.9zm19.7-1.9c1.3-1.1 1.9-2.4 2-3.7.8.4 1.7.3 2.6-.5l1.3-1.1-1.6-2.7-.2.2c-.8.7-1.2.5-1.6-.3l-4.5-7.7-2.8 2.3.8 1.4c-1.3-.4-2.8-.1-4.2 1.1-2.7 2.3-3.1 6.1-1.4 9 2.2 3.4 6.1 4.8 9.6 2zm-1.8-2.9c-1.6 1.4-3.8.7-4.8-1-.9-1.4-.8-3.5.8-4.8 1.4-1.2 3.6-.7 4.7 1 .9 1.5.9 3.5-.7 4.8zm12.1-6.4 1.3-1.3-1.9-2.6-.3.3c-.5.5-.8.5-1.2-.1l-5.3-7.4-2.6 2.5 5.5 7.7c1.6 1.9 2.8 2.5 4.5.9zm-10.6-9.8 2.6-2.5-2.1-3-2.6 2.5 2.1 3zm16.4 4 1.1-1.2-1.9-2.6-.3.3c-.5.5-.8.5-1.2-.1l-9.2-12.1-2.5 2.6 9.2 12.1c1.4 1.9 2.7 3.1 4.8 1zm6.9-7.4c2.1-2.5 2.2-5 .6-6.8-1.9-2.2-4.2-1-5.9.1-1.2.8-2.2 1.6-2.7 1-.4-.5-.4-1.2.3-1.9.8-.9 1.8-1.2 2.9-1.1l.4-3.4c-1.7-.2-3.8.7-5.4 2.6-1.8 2.1-2.1 4.7-.7 6.4 2 2.3 4.2 1.1 5.9-.1 1.2-.8 2.2-1.6 2.7-1 .5.6.4 1.4-.2 2.1-.8 1-2 1.3-3.3 1.1l-.4 3.6c1.7.3 3.9-.3 5.8-2.6z"/></g></g></svg>